# xmcd
#
# Track frame offsets:
#	150
#	145245
#	170363
#	216802
#	258437
#
# Disc length: 3633
#
# Revision: 1
# Processed by: cddbd v1.5.1PL0 Copyright (c) Steve Scherf et al.
# Submitted via: dBpowerAMP V4.0
# Normalized: r0:TRMNUM
#
DISCID=440e2f05
DTITLE=Shantiprem - Music for Lovers
DYEAR=1900
DGENRE=Blues
TTITLE0=shantiprem - tantric flow
TTITLE1=shantiprem - feathery touch
TTITLE2=shantiprem - herzleuchten
TTITLE3=shantiprem - time to breathe
TTITLE4=shantiprem - voices
EXTD=
EXTT0=
EXTT1=
EXTT2=
EXTT3=
EXTT4=
PLAYORDER=
